<svg width="551" height="159" viewBox="0 0 551 159" fill="none" xmlns="http://www.w3.org/2000/svg">
<rect width="551" height="159" rx="8" fill="url(#paint0_linear_203_481)"/>
<path d="M39.8026 49.6364V70H36.0838L27.2244 57.1832H27.0753V70H22.7699V49.6364H26.5483L35.3381 62.4432H35.517V49.6364H39.8026ZM43.3597 70V49.6364H56.8427V53.1861H47.6651V58.0384H55.9478V61.5881H47.6651V70H43.3597ZM58.9631 53.1861V49.6364H75.6875V53.1861H69.4531V70H65.1974V53.1861H58.9631ZM88.4322 70H83.8185L90.8484 49.6364H96.3967L103.417 70H98.8029L93.7021 54.2898H93.543L88.4322 70ZM88.1438 61.9957H99.0415V65.3565H88.1438V61.9957ZM111.958 76.0455C110.586 76.0455 109.409 75.8565 108.428 75.4787C107.453 75.1075 106.678 74.6004 106.101 73.9574C105.525 73.3144 105.15 72.5919 104.978 71.7898L108.895 71.2628C109.015 71.5677 109.203 71.8527 109.462 72.1179C109.721 72.383 110.062 72.5952 110.486 72.7543C110.917 72.92 111.441 73.0028 112.057 73.0028C112.979 73.0028 113.738 72.7775 114.334 72.3267C114.937 71.8826 115.239 71.1368 115.239 70.0895V67.2955H115.06C114.874 67.7197 114.596 68.1207 114.225 68.4986C113.854 68.8764 113.376 69.1847 112.793 69.4233C112.21 69.6619 111.514 69.7812 110.705 69.7812C109.558 69.7812 108.514 69.5161 107.573 68.9858C106.638 68.4489 105.892 67.6302 105.336 66.5298C104.785 65.4228 104.51 64.0241 104.51 62.3338C104.51 60.6037 104.792 59.1586 105.355 57.9986C105.919 56.8385 106.668 55.9702 107.603 55.3935C108.544 54.8168 109.575 54.5284 110.695 54.5284C111.55 54.5284 112.266 54.6742 112.843 54.9659C113.419 55.2509 113.883 55.6089 114.235 56.0398C114.593 56.464 114.868 56.8816 115.06 57.2926H115.219V54.7273H119.425V70.1491C119.425 71.4484 119.107 72.5355 118.471 73.4105C117.834 74.2855 116.953 74.9418 115.826 75.3793C114.705 75.8234 113.416 76.0455 111.958 76.0455ZM112.047 66.5994C112.73 66.5994 113.307 66.4304 113.777 66.0923C114.255 65.7476 114.619 65.2571 114.871 64.6207C115.13 63.9777 115.259 63.2088 115.259 62.3139C115.259 61.419 115.133 60.6435 114.881 59.9872C114.629 59.3243 114.265 58.8106 113.787 58.446C113.31 58.0814 112.73 57.8991 112.047 57.8991C111.351 57.8991 110.765 58.0881 110.287 58.4659C109.81 58.8371 109.449 59.3542 109.203 60.017C108.958 60.6799 108.836 61.4455 108.836 62.3139C108.836 63.1955 108.958 63.9579 109.203 64.6009C109.455 65.2372 109.817 65.7311 110.287 66.0824C110.765 66.4271 111.351 66.5994 112.047 66.5994ZM129.676 76.0455C128.304 76.0455 127.128 75.8565 126.147 75.4787C125.172 75.1075 124.397 74.6004 123.82 73.9574C123.243 73.3144 122.869 72.5919 122.696 71.7898L126.614 71.2628C126.733 71.5677 126.922 71.8527 127.181 72.1179C127.439 72.383 127.781 72.5952 128.205 72.7543C128.636 72.92 129.159 73.0028 129.776 73.0028C130.697 73.0028 131.456 72.7775 132.053 72.3267C132.656 71.8826 132.958 71.1368 132.958 70.0895V67.2955H132.779C132.593 67.7197 132.315 68.1207 131.944 68.4986C131.572 68.8764 131.095 69.1847 130.512 69.4233C129.928 69.6619 129.232 69.7812 128.424 69.7812C127.277 69.7812 126.233 69.5161 125.292 68.9858C124.357 68.4489 123.611 67.6302 123.054 66.5298C122.504 65.4228 122.229 64.0241 122.229 62.3338C122.229 60.6037 122.511 59.1586 123.074 57.9986C123.638 56.8385 124.387 55.9702 125.321 55.3935C126.263 54.8168 127.293 54.5284 128.414 54.5284C129.269 54.5284 129.985 54.6742 130.561 54.9659C131.138 55.2509 131.602 55.6089 131.953 56.0398C132.311 56.464 132.587 56.8816 132.779 57.2926H132.938V54.7273H137.144V70.1491C137.144 71.4484 136.826 72.5355 136.189 73.4105C135.553 74.2855 134.671 74.9418 133.544 75.3793C132.424 75.8234 131.135 76.0455 129.676 76.0455ZM129.766 66.5994C130.449 66.5994 131.025 66.4304 131.496 66.0923C131.973 65.7476 132.338 65.2571 132.59 64.6207C132.848 63.9777 132.978 63.2088 132.978 62.3139C132.978 61.419 132.852 60.6435 132.6 59.9872C132.348 59.3243 131.983 58.8106 131.506 58.446C131.029 58.0814 130.449 57.8991 129.766 57.8991C129.07 57.8991 128.483 58.0881 128.006 58.4659C127.529 58.8371 127.167 59.3542 126.922 60.017C126.677 60.6799 126.554 61.4455 126.554 62.3139C126.554 63.1955 126.677 63.9579 126.922 64.6009C127.174 65.2372 127.535 65.7311 128.006 66.0824C128.483 66.4271 129.07 66.5994 129.766 66.5994ZM140.515 70V54.7273H144.621V57.392H144.78C145.059 56.4441 145.526 55.7282 146.182 55.2443C146.838 54.7538 147.594 54.5085 148.449 54.5085C148.661 54.5085 148.89 54.5218 149.135 54.5483C149.381 54.5748 149.596 54.6113 149.782 54.6577V58.4162C149.583 58.3565 149.308 58.3035 148.956 58.2571C148.605 58.2107 148.283 58.1875 147.992 58.1875C147.369 58.1875 146.812 58.3234 146.321 58.5952C145.837 58.8603 145.453 59.2315 145.168 59.7088C144.89 60.1861 144.75 60.7363 144.75 61.3594V70H140.515ZM158.221 70.2983C156.65 70.2983 155.298 69.9801 154.164 69.3438C153.037 68.7008 152.169 67.7926 151.559 66.6193C150.949 65.4394 150.644 64.044 150.644 62.4332C150.644 60.8622 150.949 59.4834 151.559 58.2969C152.169 57.1103 153.027 56.1856 154.134 55.5227C155.248 54.8598 156.554 54.5284 158.052 54.5284C159.059 54.5284 159.997 54.6908 160.866 55.0156C161.741 55.3338 162.503 55.8144 163.153 56.4574C163.809 57.1004 164.319 57.9091 164.684 58.8835C165.049 59.8513 165.231 60.9848 165.231 62.2841V63.4474H152.335V60.8224H161.244C161.244 60.2126 161.111 59.6723 160.846 59.2017C160.581 58.7311 160.213 58.3632 159.742 58.098C159.278 57.8262 158.738 57.6903 158.121 57.6903C157.478 57.6903 156.908 57.8395 156.411 58.1378C155.921 58.4295 155.536 58.8239 155.258 59.321C154.979 59.8116 154.837 60.3584 154.83 60.9616V63.4574C154.83 64.2131 154.969 64.866 155.248 65.4162C155.533 65.9664 155.934 66.3906 156.451 66.6889C156.968 66.9872 157.581 67.1364 158.29 67.1364C158.761 67.1364 159.192 67.0701 159.583 66.9375C159.974 66.8049 160.309 66.6061 160.587 66.3409C160.866 66.0758 161.078 65.7509 161.224 65.3665L165.141 65.625C164.942 66.5663 164.535 67.3883 163.918 68.0909C163.308 68.7869 162.52 69.3305 161.552 69.7216C160.591 70.1061 159.48 70.2983 158.221 70.2983ZM174.876 76.0455C173.504 76.0455 172.327 75.8565 171.346 75.4787C170.371 75.1075 169.596 74.6004 169.019 73.9574C168.442 73.3144 168.068 72.5919 167.896 71.7898L171.813 71.2628C171.933 71.5677 172.121 71.8527 172.38 72.1179C172.638 72.383 172.98 72.5952 173.404 72.7543C173.835 72.92 174.359 73.0028 174.975 73.0028C175.897 73.0028 176.656 72.7775 177.252 72.3267C177.855 71.8826 178.157 71.1368 178.157 70.0895V67.2955H177.978C177.792 67.7197 177.514 68.1207 177.143 68.4986C176.772 68.8764 176.294 69.1847 175.711 69.4233C175.128 69.6619 174.432 69.7812 173.623 69.7812C172.476 69.7812 171.432 69.5161 170.491 68.9858C169.556 68.4489 168.81 67.6302 168.254 66.5298C167.703 65.4228 167.428 64.0241 167.428 62.3338C167.428 60.6037 167.71 59.1586 168.273 57.9986C168.837 56.8385 169.586 55.9702 170.521 55.3935C171.462 54.8168 172.493 54.5284 173.613 54.5284C174.468 54.5284 175.184 54.6742 175.761 54.9659C176.337 55.2509 176.801 55.6089 177.153 56.0398C177.511 56.464 177.786 56.8816 177.978 57.2926H178.137V54.7273H182.343V70.1491C182.343 71.4484 182.025 72.5355 181.388 73.4105C180.752 74.2855 179.871 74.9418 178.744 75.3793C177.623 75.8234 176.334 76.0455 174.876 76.0455ZM174.965 66.5994C175.648 66.5994 176.225 66.4304 176.695 66.0923C177.173 65.7476 177.537 65.2571 177.789 64.6207C178.048 63.9777 178.177 63.2088 178.177 62.3139C178.177 61.419 178.051 60.6435 177.799 59.9872C177.547 59.3243 177.183 58.8106 176.705 58.446C176.228 58.0814 175.648 57.8991 174.965 57.8991C174.269 57.8991 173.683 58.0881 173.205 58.4659C172.728 58.8371 172.367 59.3542 172.121 60.017C171.876 60.6799 171.754 61.4455 171.754 62.3139C171.754 63.1955 171.876 63.9579 172.121 64.6009C172.373 65.2372 172.735 65.7311 173.205 66.0824C173.683 66.4271 174.269 66.5994 174.965 66.5994ZM190.069 70.2884C189.094 70.2884 188.226 70.1193 187.464 69.7812C186.701 69.4366 186.098 68.9295 185.654 68.2599C185.217 67.5838 184.998 66.742 184.998 65.7344C184.998 64.8859 185.154 64.1733 185.465 63.5966C185.777 63.0199 186.201 62.5559 186.738 62.2045C187.275 61.8532 187.885 61.5881 188.567 61.4091C189.257 61.2301 189.979 61.1042 190.735 61.0312C191.623 60.9384 192.339 60.8523 192.883 60.7727C193.426 60.6866 193.821 60.5606 194.066 60.3949C194.311 60.2292 194.434 59.9839 194.434 59.6591V59.5994C194.434 58.9697 194.235 58.4825 193.837 58.1378C193.446 57.7931 192.889 57.6207 192.167 57.6207C191.405 57.6207 190.798 57.7898 190.347 58.1278C189.897 58.4593 189.598 58.8769 189.452 59.3807L185.535 59.0625C185.734 58.1345 186.125 57.3324 186.708 56.6562C187.291 55.9735 188.044 55.4498 188.965 55.0852C189.893 54.714 190.967 54.5284 192.187 54.5284C193.035 54.5284 193.847 54.6278 194.623 54.8267C195.405 55.0256 196.098 55.3338 196.701 55.7514C197.311 56.169 197.791 56.706 198.143 57.3622C198.494 58.0118 198.67 58.7907 198.67 59.6989V70H194.653V67.8821H194.533C194.288 68.3594 193.96 68.7803 193.549 69.1449C193.138 69.5028 192.644 69.7846 192.067 69.9901C191.491 70.1889 190.825 70.2884 190.069 70.2884ZM191.282 67.3651C191.905 67.3651 192.455 67.2424 192.933 66.9972C193.41 66.7453 193.784 66.4072 194.056 65.983C194.328 65.5587 194.464 65.0781 194.464 64.5412V62.9205C194.331 63.0066 194.149 63.0862 193.917 63.1591C193.692 63.2254 193.436 63.2884 193.151 63.348C192.866 63.401 192.581 63.4508 192.296 63.4972C192.011 63.5369 191.753 63.5734 191.521 63.6065C191.023 63.6795 190.589 63.7955 190.218 63.9545C189.847 64.1136 189.558 64.3291 189.353 64.6009C189.147 64.866 189.045 65.1974 189.045 65.5952C189.045 66.1719 189.254 66.6127 189.671 66.9176C190.095 67.2159 190.632 67.3651 191.282 67.3651ZM210.08 54.7273V57.9091H200.882V54.7273H210.08ZM202.97 51.0682H207.206V65.3068C207.206 65.6979 207.266 66.0028 207.385 66.2216C207.504 66.4337 207.67 66.5829 207.882 66.669C208.101 66.7552 208.353 66.7983 208.638 66.7983C208.837 66.7983 209.036 66.7817 209.234 66.7486C209.433 66.7088 209.586 66.679 209.692 66.6591L210.358 69.8111C210.146 69.8774 209.848 69.9536 209.463 70.0398C209.079 70.1326 208.611 70.1889 208.061 70.2088C207.04 70.2486 206.145 70.1127 205.376 69.8011C204.614 69.4896 204.021 69.0057 203.597 68.3494C203.172 67.6932 202.964 66.8646 202.97 65.8636V51.0682ZM219.575 70.2983C218.031 70.2983 216.695 69.9702 215.568 69.3139C214.448 68.651 213.583 67.7296 212.973 66.5497C212.363 65.3632 212.058 63.9877 212.058 62.4233C212.058 60.8456 212.363 59.4669 212.973 58.2869C213.583 57.1004 214.448 56.179 215.568 55.5227C216.695 54.8598 218.031 54.5284 219.575 54.5284C221.12 54.5284 222.452 54.8598 223.572 55.5227C224.699 56.179 225.568 57.1004 226.178 58.2869C226.787 59.4669 227.092 60.8456 227.092 62.4233C227.092 63.9877 226.787 65.3632 226.178 66.5497C225.568 67.7296 224.699 68.651 223.572 69.3139C222.452 69.9702 221.12 70.2983 219.575 70.2983ZM219.595 67.017C220.298 67.017 220.884 66.8182 221.355 66.4205C221.826 66.0161 222.18 65.4659 222.419 64.7699C222.664 64.0739 222.787 63.2817 222.787 62.3935C222.787 61.5052 222.664 60.7131 222.419 60.017C222.18 59.321 221.826 58.7708 221.355 58.3665C220.884 57.9621 220.298 57.7599 219.595 57.7599C218.886 57.7599 218.289 57.9621 217.805 58.3665C217.328 58.7708 216.967 59.321 216.722 60.017C216.483 60.7131 216.364 61.5052 216.364 62.3935C216.364 63.2817 216.483 64.0739 216.722 64.7699C216.967 65.4659 217.328 66.0161 217.805 66.4205C218.289 66.8182 218.886 67.017 219.595 67.017ZM229.847 70V54.7273H233.953V57.392H234.112C234.391 56.4441 234.858 55.7282 235.514 55.2443C236.17 54.7538 236.926 54.5085 237.781 54.5085C237.993 54.5085 238.222 54.5218 238.467 54.5483C238.713 54.5748 238.928 54.6113 239.114 54.6577V58.4162C238.915 58.3565 238.64 58.3035 238.288 58.2571C237.937 58.2107 237.616 58.1875 237.324 58.1875C236.701 58.1875 236.144 58.3234 235.653 58.5952C235.17 58.8603 234.785 59.2315 234.5 59.7088C234.222 60.1861 234.082 60.7363 234.082 61.3594V70H229.847ZM29.9886 104H22.7699V83.6364H30.0483C32.0966 83.6364 33.8598 84.044 35.3381 84.8594C36.8163 85.6681 37.9531 86.8314 38.7486 88.3494C39.5507 89.8674 39.9517 91.6837 39.9517 93.7983C39.9517 95.9195 39.5507 97.7424 38.7486 99.267C37.9531 100.792 36.8097 101.962 35.3182 102.777C33.8333 103.592 32.0568 104 29.9886 104ZM27.0753 100.311H29.8097C31.0824 100.311 32.1529 100.086 33.0213 99.6349C33.8963 99.1776 34.5526 98.4716 34.9901 97.517C35.4342 96.5559 35.6562 95.3163 35.6562 93.7983C35.6562 92.2936 35.4342 91.0639 34.9901 90.1094C34.5526 89.1548 33.8996 88.4522 33.0312 88.0014C32.1629 87.5507 31.0923 87.3253 29.8196 87.3253H27.0753V100.311ZM47.4165 104.288C46.4421 104.288 45.5737 104.119 44.8114 103.781C44.0491 103.437 43.4459 102.929 43.0018 102.26C42.5643 101.584 42.3455 100.742 42.3455 99.7344C42.3455 98.8859 42.5013 98.1733 42.8129 97.5966C43.1244 97.0199 43.5487 96.5559 44.0856 96.2045C44.6225 95.8532 45.2324 95.5881 45.9151 95.4091C46.6045 95.2301 47.3271 95.1042 48.0827 95.0312C48.971 94.9384 49.6869 94.8523 50.2305 94.7727C50.774 94.6866 51.1684 94.5606 51.4137 94.3949C51.659 94.2292 51.7816 93.9839 51.7816 93.6591V93.5994C51.7816 92.9697 51.5827 92.4825 51.185 92.1378C50.7939 91.7931 50.2371 91.6207 49.5146 91.6207C48.7522 91.6207 48.1457 91.7898 47.695 92.1278C47.2442 92.4593 46.9459 92.8769 46.8001 93.3807L42.8825 93.0625C43.0813 92.1345 43.4724 91.3324 44.0558 90.6562C44.6391 89.9735 45.3915 89.4498 46.3129 89.0852C47.2409 88.714 48.3147 88.5284 49.5344 88.5284C50.3829 88.5284 51.195 88.6278 51.9705 88.8267C52.7527 89.0256 53.4454 89.3338 54.0487 89.7514C54.6585 90.169 55.1391 90.706 55.4904 91.3622C55.8417 92.0118 56.0174 92.7907 56.0174 93.6989V104H52.0004V101.882H51.881C51.6358 102.359 51.3076 102.78 50.8967 103.145C50.4857 103.503 49.9918 103.785 49.4151 103.99C48.8384 104.189 48.1722 104.288 47.4165 104.288ZM48.6296 101.365C49.2527 101.365 49.8029 101.242 50.2802 100.997C50.7575 100.745 51.132 100.407 51.4038 99.983C51.6755 99.5587 51.8114 99.0781 51.8114 98.5412V96.9205C51.6789 97.0066 51.4966 97.0862 51.2646 97.1591C51.0392 97.2254 50.784 97.2884 50.4989 97.348C50.2139 97.401 49.9289 97.4508 49.6438 97.4972C49.3588 97.5369 49.1003 97.5734 48.8683 97.6065C48.3711 97.6795 47.9369 97.7955 47.5657 97.9545C47.1945 98.1136 46.9061 98.3291 46.7006 98.6009C46.4951 98.866 46.3924 99.1974 46.3924 99.5952C46.3924 100.172 46.6012 100.613 47.0188 100.918C47.4431 101.216 47.98 101.365 48.6296 101.365ZM67.4272 88.7273V91.9091H58.2298V88.7273H67.4272ZM60.3178 85.0682H64.5536V99.3068C64.5536 99.6979 64.6133 100.003 64.7326 100.222C64.8519 100.434 65.0176 100.583 65.2298 100.669C65.4485 100.755 65.7004 100.798 65.9854 100.798C66.1843 100.798 66.3832 100.782 66.582 100.749C66.7809 100.709 66.9334 100.679 67.0394 100.659L67.7056 103.811C67.4935 103.877 67.1952 103.954 66.8107 104.04C66.4263 104.133 65.9589 104.189 65.4087 104.209C64.3879 104.249 63.493 104.113 62.7241 103.801C61.9618 103.49 61.3685 103.006 60.9442 102.349C60.52 101.693 60.3112 100.865 60.3178 99.8636V85.0682ZM74.5415 104.288C73.5671 104.288 72.6987 104.119 71.9364 103.781C71.1741 103.437 70.5709 102.929 70.1268 102.26C69.6893 101.584 69.4705 100.742 69.4705 99.7344C69.4705 98.8859 69.6263 98.1733 69.9379 97.5966C70.2494 97.0199 70.6737 96.5559 71.2106 96.2045C71.7475 95.8532 72.3574 95.5881 73.0401 95.4091C73.7295 95.2301 74.4521 95.1042 75.2077 95.0312C76.096 94.9384 76.8119 94.8523 77.3555 94.7727C77.899 94.6866 78.2934 94.5606 78.5387 94.3949C78.784 94.2292 78.9066 93.9839 78.9066 93.6591V93.5994C78.9066 92.9697 78.7077 92.4825 78.31 92.1378C77.9189 91.7931 77.3621 91.6207 76.6396 91.6207C75.8772 91.6207 75.2707 91.7898 74.82 92.1278C74.3692 92.4593 74.0709 92.8769 73.9251 93.3807L70.0075 93.0625C70.2063 92.1345 70.5974 91.3324 71.1808 90.6562C71.7641 89.9735 72.5165 89.4498 73.4379 89.0852C74.3659 88.714 75.4397 88.5284 76.6594 88.5284C77.5079 88.5284 78.32 88.6278 79.0955 88.8267C79.8777 89.0256 80.5704 89.3338 81.1737 89.7514C81.7835 90.169 82.2641 90.706 82.6154 91.3622C82.9667 92.0118 83.1424 92.7907 83.1424 93.6989V104H79.1254V101.882H79.006C78.7608 102.359 78.4326 102.78 78.0217 103.145C77.6107 103.503 77.1168 103.785 76.5401 103.99C75.9634 104.189 75.2972 104.288 74.5415 104.288ZM75.7546 101.365C76.3777 101.365 76.9279 101.242 77.4052 100.997C77.8825 100.745 78.257 100.407 78.5288 99.983C78.8005 99.5587 78.9364 99.0781 78.9364 98.5412V96.9205C78.8039 97.0066 78.6216 97.0862 78.3896 97.1591C78.1642 97.2254 77.909 97.2884 77.6239 97.348C77.3389 97.401 77.0539 97.4508 76.7688 97.4972C76.4838 97.5369 76.2253 97.5734 75.9933 97.6065C75.4961 97.6795 75.0619 97.7955 74.6907 97.9545C74.3195 98.1136 74.0311 98.3291 73.8256 98.6009C73.6201 98.866 73.5174 99.1974 73.5174 99.5952C73.5174 100.172 73.7262 100.613 74.1438 100.918C74.5681 101.216 75.105 101.365 75.7546 101.365ZM96.4986 104H91.8849L98.9148 83.6364H104.463L111.483 104H106.869L101.768 88.2898H101.609L96.4986 104ZM96.2102 95.9957H107.108V99.3565H96.2102V95.9957ZM118.09 95.1705V104H113.854V88.7273H117.891V91.4219H118.07C118.408 90.5336 118.975 89.831 119.771 89.3139C120.566 88.7902 121.531 88.5284 122.664 88.5284C123.725 88.5284 124.649 88.7604 125.438 89.2244C126.227 89.6884 126.84 90.3513 127.278 91.2131C127.715 92.0682 127.934 93.089 127.934 94.2756V104H123.698V95.0312C123.705 94.0966 123.466 93.3674 122.982 92.8438C122.498 92.3134 121.832 92.0483 120.984 92.0483C120.414 92.0483 119.91 92.1709 119.472 92.4162C119.041 92.6615 118.703 93.0194 118.458 93.4901C118.219 93.9541 118.097 94.5142 118.09 95.1705ZM135.627 104.288C134.653 104.288 133.785 104.119 133.022 103.781C132.26 103.437 131.657 102.929 131.213 102.26C130.775 101.584 130.556 100.742 130.556 99.7344C130.556 98.8859 130.712 98.1733 131.024 97.5966C131.335 97.0199 131.76 96.5559 132.297 96.2045C132.833 95.8532 133.443 95.5881 134.126 95.4091C134.815 95.2301 135.538 95.1042 136.294 95.0312C137.182 94.9384 137.898 94.8523 138.441 94.7727C138.985 94.6866 139.379 94.5606 139.625 94.3949C139.87 94.2292 139.993 93.9839 139.993 93.6591V93.5994C139.993 92.9697 139.794 92.4825 139.396 92.1378C139.005 91.7931 138.448 91.6207 137.725 91.6207C136.963 91.6207 136.357 91.7898 135.906 92.1278C135.455 92.4593 135.157 92.8769 135.011 93.3807L131.093 93.0625C131.292 92.1345 131.683 91.3324 132.267 90.6562C132.85 89.9735 133.602 89.4498 134.524 89.0852C135.452 88.714 136.526 88.5284 137.745 88.5284C138.594 88.5284 139.406 88.6278 140.181 88.8267C140.964 89.0256 141.656 89.3338 142.26 89.7514C142.869 90.169 143.35 90.706 143.701 91.3622C144.053 92.0118 144.228 92.7907 144.228 93.6989V104H140.211V101.882H140.092C139.847 102.359 139.519 102.78 139.108 103.145C138.697 103.503 138.203 103.785 137.626 103.99C137.049 104.189 136.383 104.288 135.627 104.288ZM136.841 101.365C137.464 101.365 138.014 101.242 138.491 100.997C138.968 100.745 139.343 100.407 139.615 99.983C139.886 99.5587 140.022 99.0781 140.022 98.5412V96.9205C139.89 97.0066 139.708 97.0862 139.475 97.1591C139.25 97.2254 138.995 97.2884 138.71 97.348C138.425 97.401 138.14 97.4508 137.855 97.4972C137.57 97.5369 137.311 97.5734 137.079 97.6065C136.582 97.6795 136.148 97.7955 135.777 97.9545C135.405 98.1136 135.117 98.3291 134.912 98.6009C134.706 98.866 134.603 99.1974 134.603 99.5952C134.603 100.172 134.812 100.613 135.23 100.918C135.654 101.216 136.191 101.365 136.841 101.365ZM151.75 83.6364V104H147.515V83.6364H151.75ZM157.759 109.727C157.222 109.727 156.718 109.684 156.247 109.598C155.783 109.518 155.399 109.416 155.094 109.29L156.048 106.128C156.545 106.28 156.993 106.363 157.391 106.376C157.795 106.39 158.143 106.297 158.435 106.098C158.733 105.899 158.975 105.561 159.161 105.084L159.409 104.438L153.93 88.7273H158.385L161.547 99.9432H161.706L164.898 88.7273H169.382L163.446 105.651C163.161 106.473 162.773 107.188 162.283 107.798C161.799 108.415 161.186 108.889 160.443 109.22C159.701 109.558 158.806 109.727 157.759 109.727ZM179.673 88.7273V91.9091H170.476V88.7273H179.673ZM172.564 85.0682H176.8V99.3068C176.8 99.6979 176.859 100.003 176.979 100.222C177.098 100.434 177.264 100.583 177.476 100.669C177.695 100.755 177.946 100.798 178.232 100.798C178.43 100.798 178.629 100.782 178.828 100.749C179.027 100.709 179.179 100.679 179.286 100.659L179.952 103.811C179.74 103.877 179.441 103.954 179.057 104.04C178.672 104.133 178.205 104.189 177.655 104.209C176.634 104.249 175.739 104.113 174.97 103.801C174.208 103.49 173.615 103.006 173.19 102.349C172.766 101.693 172.557 100.865 172.564 99.8636V85.0682ZM182.433 104V88.7273H186.668V104H182.433ZM184.56 86.7585C183.931 86.7585 183.39 86.5497 182.94 86.1321C182.496 85.7079 182.273 85.2008 182.273 84.6108C182.273 84.0275 182.496 83.527 182.94 83.1094C183.39 82.6851 183.931 82.473 184.56 82.473C185.19 82.473 185.727 82.6851 186.171 83.1094C186.622 83.527 186.847 84.0275 186.847 84.6108C186.847 85.2008 186.622 85.7079 186.171 86.1321C185.727 86.5497 185.19 86.7585 184.56 86.7585ZM196.962 104.298C195.398 104.298 194.052 103.967 192.925 103.304C191.805 102.634 190.943 101.706 190.34 100.52C189.743 99.3333 189.445 97.9678 189.445 96.4233C189.445 94.8589 189.747 93.4867 190.35 92.3068C190.96 91.1203 191.825 90.1955 192.945 89.5327C194.065 88.8632 195.398 88.5284 196.942 88.5284C198.275 88.5284 199.441 88.7704 200.442 89.2543C201.443 89.7382 202.235 90.4176 202.819 91.2926C203.402 92.1676 203.723 93.1951 203.783 94.375H199.786C199.673 93.6127 199.375 92.9995 198.891 92.5355C198.414 92.0649 197.787 91.8295 197.012 91.8295C196.355 91.8295 195.782 92.0085 195.292 92.3665C194.808 92.7178 194.43 93.2315 194.158 93.9077C193.886 94.5838 193.75 95.4025 193.75 96.3636C193.75 97.3381 193.883 98.1667 194.148 98.8494C194.42 99.5322 194.801 100.053 195.292 100.411C195.782 100.768 196.355 100.947 197.012 100.947C197.496 100.947 197.93 100.848 198.314 100.649C198.705 100.45 199.027 100.162 199.279 99.7841C199.537 99.3996 199.706 98.9389 199.786 98.402H203.783C203.717 99.5687 203.399 100.596 202.828 101.484C202.265 102.366 201.486 103.055 200.492 103.553C199.498 104.05 198.321 104.298 196.962 104.298ZM210.85 104.288C209.876 104.288 209.007 104.119 208.245 103.781C207.483 103.437 206.879 102.929 206.435 102.26C205.998 101.584 205.779 100.742 205.779 99.7344C205.779 98.8859 205.935 98.1733 206.246 97.5966C206.558 97.0199 206.982 96.5559 207.519 96.2045C208.056 95.8532 208.666 95.5881 209.349 95.4091C210.038 95.2301 210.761 95.1042 211.516 95.0312C212.405 94.9384 213.121 94.8523 213.664 94.7727C214.208 94.6866 214.602 94.5606 214.847 94.3949C215.093 94.2292 215.215 93.9839 215.215 93.6591V93.5994C215.215 92.9697 215.016 92.4825 214.619 92.1378C214.228 91.7931 213.671 91.6207 212.948 91.6207C212.186 91.6207 211.579 91.7898 211.129 92.1278C210.678 92.4593 210.379 92.8769 210.234 93.3807L206.316 93.0625C206.515 92.1345 206.906 91.3324 207.489 90.6562C208.073 89.9735 208.825 89.4498 209.746 89.0852C210.674 88.714 211.748 88.5284 212.968 88.5284C213.817 88.5284 214.629 88.6278 215.404 88.8267C216.186 89.0256 216.879 89.3338 217.482 89.7514C218.092 90.169 218.573 90.706 218.924 91.3622C219.275 92.0118 219.451 92.7907 219.451 93.6989V104H215.434V101.882H215.315C215.069 102.359 214.741 102.78 214.33 103.145C213.919 103.503 213.425 103.785 212.849 103.99C212.272 104.189 211.606 104.288 210.85 104.288ZM212.063 101.365C212.686 101.365 213.237 101.242 213.714 100.997C214.191 100.745 214.566 100.407 214.837 99.983C215.109 99.5587 215.245 99.0781 215.245 98.5412V96.9205C215.112 97.0066 214.93 97.0862 214.698 97.1591C214.473 97.2254 214.218 97.2884 213.933 97.348C213.647 97.401 213.362 97.4508 213.077 97.4972C212.792 97.5369 212.534 97.5734 212.302 97.6065C211.805 97.6795 211.371 97.7955 210.999 97.9545C210.628 98.1136 210.34 98.3291 210.134 98.6009C209.929 98.866 209.826 99.1974 209.826 99.5952C209.826 100.172 210.035 100.613 210.452 100.918C210.877 101.216 211.414 101.365 212.063 101.365ZM226.973 83.6364V104H222.737V83.6364H226.973Z" fill="#E6E6E6"/>
<path d="M300 112.5C300 112.5 318.804 70.5 342 70.5C365.196 70.5 361.288 107.786 384 112.5C418.609 119.683 413.279 41.8789 448 48.5C471.599 53.0003 491.5 92 491.5 92" stroke="#E6E6E6" stroke-width="3"/>
<defs>
<linearGradient id="paint0_linear_203_481" x1="0" y1="79.9999" x2="551" y2="79.9999" gradientUnits="userSpaceOnUse">
<stop stop-color="#0B0D47"/>
<stop offset="0.447133" stop-color="#712865"/>
<stop offset="1" stop-color="#C53E7C"/>
</linearGradient>
</defs>
</svg>
