 <svg
        xmlns="http://www.w3.org/2000/svg"
        viewBox="0 0 20 20"
        fill="fill-light-primary-light "
    >
        <path
            fillRule="evenodd"
            clipRule="evenodd"
            d="M10 18.0987C14.2175 18.0987 17.6364 14.6799 17.6364 10.4624C17.6364 6.24494 14.2175 2.82602 10 2.82602C5.7826 2.82602 2.36368 6.24494 2.36368 10.4624C2.36368 14.6799 5.7826 18.0987 10 18.0987ZM10 20.0078C15.2718 20.0078 19.5455 15.7341 19.5455 10.4624C19.5455 5.19057 15.2718 0.916931 10 0.916931C4.72823 0.916931 0.45459 5.19057 0.45459 10.4624C0.45459 15.7341 4.72823 20.0078 10 20.0078Z"
         fill="#777E90"
        />
        <path
            fillRule="evenodd"
            clipRule="evenodd"
            d="M9.17274 8.07669C8.90881 8.53306 8.32491 8.68894 7.86854 8.425C7.41223 8.16107 7.2563 7.57711 7.52027 7.12078C8.01392 6.26733 8.93907 5.68966 10.0002 5.68966C11.5817 5.68966 12.8639 6.97176 12.8639 8.55329C12.8639 9.6011 12.2211 10.4567 11.4321 10.9397C10.7982 11.3277 11.1934 12.3715 9.99775 12.3715C9.47056 12.3715 9.04321 11.9441 9.04321 11.4169C9.04321 11.3834 9.04493 11.3503 9.04827 11.3177C9.07471 10.8129 9.29988 10.4021 9.54492 10.1034C9.80379 9.788 10.1441 9.53046 10.4043 9.37573C11.8521 8.51511 10.0863 6.75436 9.17274 8.07669ZM9.99775 13.326C9.47056 13.326 9.04321 13.7534 9.04321 14.2806C9.04321 14.8078 9.47056 15.2351 9.99775 15.2351C10.5249 15.2351 10.9523 14.8078 10.9523 14.2806C10.9523 13.7534 10.5249 13.326 9.99775 13.326Z"
       fill="#777E90"
        />
    </svg>