<svg width="21" height="19" viewBox="0 0 21 19" fill="none" xmlns="http://www.w3.org/2000/svg">
<g id="Vector">
<path d="M19.9215 5.25614H14.3401C13.9587 5.25614 13.6424 4.93986 13.6424 4.55847C13.6424 4.17707 13.9587 3.86079 14.3401 3.86079H19.9215C20.3029 3.86079 20.6191 4.17707 20.6191 4.55847C20.6191 4.93986 20.3029 5.25614 19.9215 5.25614Z" fill="#777E90"/>
<path d="M5.03775 5.25614H1.31682C0.93542 5.25614 0.619141 4.93986 0.619141 4.55847C0.619141 4.17707 0.93542 3.86079 1.31682 3.86079H5.03775C5.41914 3.86079 5.73542 4.17707 5.73542 4.55847C5.73542 4.93986 5.41914 5.25614 5.03775 5.25614Z" fill="#777E90"/>
<path d="M8.75868 8.51196C7.7109 8.5095 6.70674 8.09218 5.96585 7.35129C5.22496 6.6104 4.80764 5.60624 4.80519 4.55847C4.80764 3.51069 5.22496 2.50653 5.96585 1.76564C6.70674 1.02475 7.7109 0.607437 8.75868 0.60498C9.80645 0.607437 10.8106 1.02475 11.5515 1.76564C12.2924 2.50653 12.7097 3.51069 12.7122 4.55847C12.7097 5.60624 12.2924 6.6104 11.5515 7.35129C10.8106 8.09218 9.80645 8.5095 8.75868 8.51196ZM8.75868 2.00033C7.34472 2.00033 6.20054 3.14452 6.20054 4.55847C6.20054 5.97242 7.34472 7.11661 8.75868 7.11661C10.1726 7.11661 11.3168 5.97242 11.3168 4.55847C11.3168 3.14452 10.1726 2.00033 8.75868 2.00033Z" fill="#777E90"/>
<path d="M19.9215 15.4887H16.2005C15.8191 15.4887 15.5029 15.1724 15.5029 14.791C15.5029 14.4096 15.8191 14.0934 16.2005 14.0934H19.9215C20.3029 14.0934 20.6191 14.4096 20.6191 14.791C20.6191 15.1724 20.3029 15.4887 19.9215 15.4887Z" fill="#777E90"/>
<path d="M6.89821 15.4887H1.31682C0.93542 15.4887 0.619141 15.1724 0.619141 14.791C0.619141 14.4096 0.93542 14.0934 1.31682 14.0934H6.89821C7.27961 14.0934 7.59588 14.4096 7.59588 14.791C7.59588 15.1724 7.27961 15.4887 6.89821 15.4887Z" fill="#777E90"/>
<path d="M12.4796 18.7445C11.4318 18.7421 10.4277 18.3247 9.68678 17.5839C8.94589 16.843 8.52857 15.8388 8.52612 14.791C8.52857 13.7433 8.94589 12.7391 9.68678 11.9982C10.4277 11.2573 11.4318 10.84 12.4796 10.8375C13.5274 10.84 14.5315 11.2573 15.2724 11.9982C16.0133 12.7391 16.4306 13.7433 16.4331 14.791C16.4306 15.8388 16.0133 16.843 15.2724 17.5839C14.5315 18.3247 13.5274 18.7421 12.4796 18.7445ZM12.4796 12.2329C11.0657 12.2329 9.92147 13.3771 9.92147 14.791C9.92147 16.205 11.0657 17.3492 12.4796 17.3492C13.8936 17.3492 15.0377 16.205 15.0377 14.791C15.0377 13.3771 13.8936 12.2329 12.4796 12.2329Z" fill="#777E90"/>
</g>
</svg>
