<svg width="16" height="13" viewBox="0 0 16 13" fill="none" xmlns="http://www.w3.org/2000/svg">
<path d="M13.5535 1.91405C12.5178 1.44456 11.4104 1.10335 10.2526 0.909058C10.1104 1.15813 9.94429 1.49313 9.82976 1.75963C8.599 1.5803 7.37956 1.5803 6.17144 1.75963C6.05693 1.49313 5.88704 1.15813 5.74357 0.909058C4.58454 1.10335 3.47584 1.44581 2.44013 1.91654C0.351095 4.97507 -0.215207 7.95764 0.0679444 10.8979C1.4535 11.9003 2.79627 12.5093 4.11638 12.9078C4.44233 12.4732 4.73302 12.0112 4.98345 11.5243C4.5065 11.3487 4.04969 11.132 3.61805 10.8804C3.73256 10.7982 3.84457 10.7123 3.95279 10.6239C6.58546 11.8169 9.44593 11.8169 12.0472 10.6239C12.1566 10.7123 12.2686 10.7982 12.3819 10.8804C11.949 11.1332 11.4909 11.3499 11.014 11.5255C11.2644 12.0112 11.5538 12.4745 11.881 12.9091C13.2024 12.5106 14.5464 11.9016 15.932 10.8979C16.2642 7.48939 15.3644 4.53422 13.5535 1.91405ZM5.34212 9.08965C4.55181 9.08965 3.9037 8.37482 3.9037 7.50433C3.9037 6.63385 4.53797 5.91779 5.34212 5.91779C6.14628 5.91779 6.79437 6.6326 6.78053 7.50433C6.78178 8.37482 6.14628 9.08965 5.34212 9.08965ZM10.6578 9.08965C9.86752 9.08965 9.21941 8.37482 9.21941 7.50433C9.21941 6.63385 9.85366 5.91779 10.6578 5.91779C11.462 5.91779 12.1101 6.6326 12.0962 7.50433C12.0962 8.37482 11.462 9.08965 10.6578 9.08965Z" fill="#E6E8EC"/>
</svg>
