<svg width="21" height="21" viewBox="0 0 21 21" fill="none" xmlns="http://www.w3.org/2000/svg">
<g id="Frame 9021">
<path id="Vector" fillRule="evenodd" clipRule="evenodd" d="M7.48007 5.13441C5.70245 6.34455 4.53831 8.38355 4.53831 10.6914C4.53831 14.4012 7.54565 17.4085 11.2554 17.4085C13.5633 17.4085 15.6022 16.2443 16.8124 14.4667C11.9095 13.9308 8.01604 10.0373 7.48007 5.13441ZM17.9725 12.6106C18.8035 12.6106 19.5191 13.343 19.1903 14.1062C17.8667 17.1775 14.8122 19.3277 11.2554 19.3277C6.48572 19.3277 2.61914 15.4611 2.61914 10.6914C2.61914 7.13465 4.76925 4.08007 7.84062 2.75654C8.60381 2.42765 9.33622 3.1433 9.33622 3.97434C9.33622 8.74402 13.2028 12.6106 17.9725 12.6106Z" fill="#777E90"/>
<path id="Icon" d="M5.72733 4.783C5.87159 4.63874 6.10548 4.63874 6.24974 4.783L6.51095 5.0442C6.65521 5.18846 6.65521 5.42235 6.51095 5.56661C6.36669 5.71087 6.1328 5.71087 5.98854 5.56661L5.72733 5.30541C5.58308 5.16115 5.58308 4.92726 5.72733 4.783Z" fill="#777E90"/>
<path id="Icon_2" d="M3.61914 12.1748C3.61914 12.4509 3.76838 12.6748 3.95247 12.6748H4.28581C4.4699 12.6748 4.61914 12.4509 4.61914 12.1748C4.61914 11.8987 4.4699 11.6748 4.28581 11.6748H3.95247C3.76838 11.6748 3.61914 11.8987 3.61914 12.1748Z" fill="#777E90"/>
<path id="Icon_3" d="M5.98854 15.783C6.1328 15.6387 6.36669 15.6387 6.51095 15.783C6.65521 15.9273 6.65521 16.1611 6.51095 16.3054L6.24974 16.5666C6.10548 16.7109 5.87159 16.7109 5.72733 16.5666C5.58308 16.4224 5.58308 16.1885 5.72733 16.0442L5.98854 15.783Z" fill="#777E90"/>
<path id="Icon_4" d="M11.1191 17.6748C11.3953 17.6748 11.6191 17.824 11.6191 18.0081V18.3415C11.6191 18.5256 11.3953 18.6748 11.1191 18.6748C10.843 18.6748 10.6191 18.5256 10.6191 18.3415V18.0081C10.6191 17.824 10.843 17.6748 11.1191 17.6748Z" fill="#777E90"/>
<path id="Icon_5" d="M15.7273 16.3054C15.5831 16.1611 15.5831 15.9273 15.7273 15.783C15.8716 15.6387 16.1055 15.6387 16.2497 15.783L16.5109 16.0442C16.6552 16.1885 16.6552 16.4224 16.5109 16.5666C16.3667 16.7109 16.1328 16.7109 15.9885 16.5666L15.7273 16.3054Z" fill="#777E90"/>
<path id="Icon_6" d="M12.6191 12.1748C12.6191 11.8987 12.7684 11.6748 12.9525 11.6748H13.2858C13.4699 11.6748 13.6191 11.8987 13.6191 12.1748C13.6191 12.4509 13.4699 12.6748 13.2858 12.6748H12.9525C12.7684 12.6748 12.6191 12.4509 12.6191 12.1748Z" fill="#777E90"/>
<path id="Icon_7" d="M11.5109 9.783C11.6552 9.92726 11.6552 10.1611 11.5109 10.3054L11.2497 10.5666C11.1055 10.7109 10.8716 10.7109 10.7273 10.5666C10.5831 10.4224 10.5831 10.1885 10.7273 10.0442L10.9885 9.783C11.1328 9.63874 11.3667 9.63874 11.5109 9.783Z" fill="#777E90"/>
<path id="Icon_8" d="M11.1191 10.6748C11.3953 10.6748 11.6191 10.824 11.6191 11.0081V11.3415C11.6191 11.5256 11.3953 11.6748 11.1191 11.6748C10.843 11.6748 10.6191 11.5256 10.6191 11.3415V11.0081C10.6191 10.824 10.843 10.6748 11.1191 10.6748Z" fill="#777E90"/>
</g>
</svg>
