<svg width="18" height="21" viewBox="0 0 18 21" fill="none" xmlns="http://www.w3.org/2000/svg">
<g id="Vector (Stroke)">
<path d="M7.12451 17.8321C6.79326 17.5397 6.28771 17.5712 5.99533 17.9025C5.70295 18.2337 5.73446 18.7393 6.06571 19.0316C6.8473 19.7215 7.87585 20.1409 9.00039 20.1409C10.125 20.1409 11.1535 19.7215 11.9351 19.0316C12.2663 18.7392 12.2978 18.2337 12.0054 17.9024C11.713 17.5712 11.2075 17.5397 10.8762 17.8321C10.3758 18.2738 9.72034 18.5409 9.00039 18.5409C8.28051 18.5409 7.62499 18.2738 7.12451 17.8321Z" fill="#777E90"/>
<path fillRule="evenodd" clipRule="evenodd" d="M9.00039 0.359131C7.3416 0.359131 5.75073 1.01809 4.57778 2.19105C3.40482 3.364 2.74586 4.95487 2.74586 6.61368C2.74586 7.86534 2.59818 8.92069 2.36816 9.80607C2.10801 10.8074 1.74256 11.5913 1.36632 12.1959L1.36568 12.197L1.35616 12.2123C1.03052 12.7356 0.774655 13.1468 0.602566 13.4454C0.516356 13.595 0.439472 13.7363 0.383201 13.8602C0.355108 13.9221 0.324609 13.996 0.301033 14.0752C0.281278 14.1415 0.245328 14.2782 0.258812 14.4432C0.268583 14.5626 0.292373 14.7565 0.402955 14.9556C0.513525 15.1546 0.665539 15.2772 0.761698 15.3485C0.967064 15.5008 1.20586 15.5362 1.29084 15.5488L1.29286 15.5491C1.42097 15.5681 1.56838 15.5778 1.7206 15.5837C2.02322 15.5955 2.44342 15.5955 2.97023 15.5955H15.0306C15.5574 15.5955 15.9776 15.5955 16.2802 15.5837C16.4324 15.5778 16.5798 15.5681 16.708 15.5491L16.71 15.5488C16.7949 15.5362 17.0335 15.5009 17.2389 15.3487C17.4066 15.224 17.742 14.8684 17.742 14.4432C17.7555 14.2783 17.7196 14.1417 17.6998 14.0753C17.6763 13.9962 17.6458 13.9223 17.6177 13.8604C17.5615 13.7365 17.4846 13.5953 17.3985 13.4458C17.2265 13.1474 16.9708 12.7364 16.6454 12.2134L16.636 12.1982L16.6345 12.1959C15.9256 11.0567 15.2549 9.28095 15.2549 6.61368C15.2549 4.95488 14.596 3.36399 13.4231 2.19103C12.25 1.01809 10.6592 0.359131 9.00039 0.359131ZM5.70915 3.32242C4.83625 4.19531 4.34586 5.37921 4.34586 6.61368C4.34586 9.22316 3.76212 11.1446 3.02248 12.5259C2.92567 12.7067 2.8262 12.8783 2.72501 13.0409L2.72438 13.0419C2.47989 13.4348 2.28559 13.7472 2.13756 13.9929C2.36508 13.9954 2.64594 13.9955 2.99027 13.9955H10.4238H15.0106C15.3549 13.9955 15.6358 13.9954 15.8633 13.9929C15.7154 13.7475 15.5216 13.4358 15.2775 13.0435L15.2761 13.0413C14.982 12.5686 14.7023 12.0207 14.4606 11.3892C13.9838 10.1432 13.6549 8.57221 13.6549 6.61368C13.6549 5.37921 13.1646 4.19532 12.2917 3.32244C11.4187 2.44953 10.2348 1.95913 9.00039 1.95913C7.7851 1.95913 6.6188 2.43442 5.75001 3.28206C5.73631 3.29542 5.72269 3.30887 5.70915 3.32242Z" fill="#777E90"/>
</g>
</svg>
