<svg width="22" height="22" viewBox="0 0 22 22" fill="none" xmlns="http://www.w3.org/2000/svg">
<g id="Frame 9021">
<circle id="Vector" cx="10.6228" cy="10.6741" r="5.24975" stroke="#777E90" stroke-width="2"/>
<path id="Icon" d="M3.25627 3.30949C3.66307 2.9027 4.32261 2.9027 4.72941 3.30949L5.46598 4.04606C5.87277 4.45286 5.87277 5.1124 5.46598 5.5192C5.05918 5.926 4.39963 5.926 3.99284 5.5192L3.25627 4.78263C2.84947 4.37583 2.84947 3.71629 3.25627 3.30949Z" fill="#777E90"/>
<path id="Icon_2" d="M0.201172 10.675C0.201172 10.0997 0.667542 9.6333 1.24284 9.6333H2.28451C2.8598 9.6333 3.32617 10.0997 3.32617 10.675C3.32617 11.2503 2.8598 11.7166 2.28451 11.7166H1.24284C0.667542 11.7166 0.201172 11.2503 0.201172 10.675Z" fill="#777E90"/>
<path id="Icon_3" d="M3.99284 15.831C4.39963 15.4242 5.05918 15.4242 5.46598 15.831C5.87277 16.2378 5.87277 16.8973 5.46598 17.3041L4.72941 18.0407C4.32261 18.4475 3.66307 18.4475 3.25627 18.0407C2.84947 17.6339 2.84947 16.9743 3.25627 16.5675L3.99284 15.831Z" fill="#777E90"/>
<path id="Icon_4" d="M10.6178 17.9663C11.1931 17.9663 11.6595 18.4327 11.6595 19.008V20.0496C11.6595 20.6249 11.1931 21.0913 10.6178 21.0913C10.0425 21.0913 9.57617 20.6249 9.57617 20.0496V19.008C9.57617 18.4327 10.0425 17.9663 10.6178 17.9663Z" fill="#777E90"/>
<path id="Icon_5" d="M15.7719 17.3041C15.3651 16.8973 15.3651 16.2378 15.7719 15.831C16.1787 15.4242 16.8382 15.4242 17.245 15.831L17.9816 16.5675C18.3884 16.9743 18.3884 17.6339 17.9816 18.0407C17.5748 18.4475 16.9153 18.4475 16.5085 18.0407L15.7719 17.3041Z" fill="#777E90"/>
<path id="Icon_6" d="M17.9121 10.675C17.9121 10.0997 18.3785 9.6333 18.9538 9.6333H19.9954C20.5707 9.6333 21.0371 10.0997 21.0371 10.675C21.0371 11.2503 20.5707 11.7166 19.9954 11.7166H18.9538C18.3785 11.7166 17.9121 11.2503 17.9121 10.675Z" fill="#777E90"/>
<path id="Icon_7" d="M17.9816 3.30949C18.3884 3.71629 18.3884 4.37583 17.9816 4.78263L17.245 5.5192C16.8382 5.926 16.1787 5.926 15.7719 5.5192C15.3651 5.1124 15.3651 4.45286 15.7719 4.04606L16.5085 3.30949C16.9153 2.9027 17.5748 2.9027 17.9816 3.30949Z" fill="#777E90"/>
<path id="Icon_8" d="M10.6178 0.258301C11.1931 0.258301 11.6595 0.724671 11.6595 1.29997V2.34163C11.6595 2.91693 11.1931 3.3833 10.6178 3.3833C10.0425 3.3833 9.57617 2.91693 9.57617 2.34163V1.29997C9.57617 0.724671 10.0425 0.258301 10.6178 0.258301Z" fill="#777E90"/>
</g>
</svg>
