<svg width="15" height="15" viewBox="0 0 15 15" fill="none" xmlns="http://www.w3.org/2000/svg">
<path d="M7.5 0.75L8.59398 1.54571L9.89414 1.17215L10.65 2.29404L11.9995 2.38769L12.3261 3.70044L13.5622 4.25L13.4201 5.59527L14.3937 6.53446L13.8 7.75L14.3937 8.96554L13.4201 9.90473L13.5622 11.25L12.3261 11.7996L11.9995 13.1123L10.65 13.206L9.89414 14.3278L8.59398 13.9543L7.5 14.75L6.40602 13.9543L5.10586 14.3278L4.35 13.206L3.00049 13.1123L2.67392 11.7996L1.43782 11.25L1.57994 9.90473L0.606346 8.96554L1.2 7.75L0.606346 6.53446L1.57994 5.59527L1.43782 4.25L2.67392 3.70044L3.00049 2.38769L4.35 2.29404L5.10586 1.17215L6.40602 1.54571L7.5 0.75Z" fill="#A49BFF"/>
<path d="M10.6475 6.67218L9.72541 5.78809L7.09076 8.31406L5.77344 7.05108L4.85132 7.93517L7.09076 10.0823L10.6475 6.67218Z" fill="#141416"/>
</svg>
