<svg width="18" height="18" viewBox="0 0 18 18" fill="none" xmlns="http://www.w3.org/2000/svg">
<path d="M12.0967 5.39522C12.0471 5.31305 11.9719 5.2494 11.8827 5.21398C11.7935 5.17857 11.6951 5.17336 11.6027 5.19913C11.5102 5.2249 11.4287 5.28024 11.3707 5.3567C11.3126 5.43315 11.2812 5.52651 11.2812 5.62251C11.2812 6.15887 10.8449 6.59516 10.3086 6.59516C9.77224 6.59516 9.33598 6.15887 9.33598 5.62251V1.93945C9.33596 1.85252 9.31017 1.76755 9.26187 1.69527C9.21358 1.623 9.14494 1.56667 9.06463 1.53339C8.98432 1.50017 8.89596 1.49149 8.81072 1.50846C8.72547 1.52544 8.64718 1.5673 8.58571 1.62875C8.5365 1.67806 7.3645 2.8567 6.17731 4.63763C5.47726 5.68772 4.91856 6.72937 4.51688 7.73358C4.00808 9.00571 3.75 10.2237 3.75 11.3535C3.75 14.1913 6.05874 16.5 8.89641 16.5C11.7342 16.5 14.0429 14.1913 14.0429 11.3535C14.0429 9.53707 13.3881 7.5324 12.0967 5.39522ZM8.89641 15.6211C6.5434 15.6211 4.62891 13.7066 4.62891 11.3535C4.62891 9.0372 5.86339 6.69585 6.89906 5.13946C7.46039 4.29591 8.02609 3.58499 8.45695 3.07939V5.62251C8.45695 6.64344 9.28758 7.47407 10.3085 7.47407C10.9327 7.47407 11.4858 7.16367 11.8213 6.68909C12.7128 8.3678 13.164 9.9336 13.164 11.3535C13.164 13.7066 11.2497 15.6211 8.89641 15.6211Z" fill="#777E90" style="fill:#777E90;fill:color(display-p3 0.4667 0.4941 0.5647);fill-opacity:1;"/>
<path d="M11.3894 8.91704H9.50661C9.26388 8.91704 9.06715 9.11377 9.06715 9.35638C9.06704 9.5991 9.26388 9.79595 9.50649 9.79595H10.3285L8.45098 11.6734L7.4304 10.6528C7.25886 10.4812 6.98054 10.4812 6.80901 10.6528L5.81037 11.6513C5.63869 11.8229 5.63869 12.1011 5.81025 12.2728C5.98193 12.4445 6.26013 12.4443 6.43178 12.2728L7.11967 11.585L8.14017 12.6056C8.2226 12.688 8.33438 12.7343 8.45094 12.7343C8.56749 12.7343 8.67928 12.688 8.7617 12.6056L10.9499 10.4175V11.2393C10.9499 11.4819 11.1466 11.6787 11.3893 11.6787C11.6321 11.6787 11.8288 11.4819 11.8288 11.2393V9.3565C11.8288 9.11377 11.6322 8.91704 11.3894 8.91704Z" fill="#777E90" style="fill:#777E90;fill:color(display-p3 0.4667 0.4941 0.5647);fill-opacity:1;"/>
</svg>
