<svg width="26" height="26" viewBox="0 0 26 26" fill="none" xmlns="http://www.w3.org/2000/svg">
<path d="M18.4167 8.66732V5.41732C18.4167 5.13 18.3026 4.85445 18.0994 4.65129C17.8962 4.44812 17.6207 4.33398 17.3334 4.33398H6.50004C5.92541 4.33398 5.3743 4.56226 4.96798 4.96859C4.56165 5.37492 4.33337 5.92602 4.33337 6.50065M4.33337 6.50065C4.33337 7.07529 4.56165 7.62639 4.96798 8.03272C5.3743 8.43904 5.92541 8.66732 6.50004 8.66732H19.5C19.7874 8.66732 20.0629 8.78145 20.2661 8.98462C20.4692 9.18778 20.5834 9.46333 20.5834 9.75065V13.0007M4.33337 6.50065V19.5007C4.33337 20.0753 4.56165 20.6264 4.96798 21.0327C5.3743 21.439 5.92541 21.6673 6.50004 21.6673H19.5C19.7874 21.6673 20.0629 21.5532 20.2661 21.35C20.4692 21.1469 20.5834 20.8713 20.5834 20.584V17.334M21.6667 13.0007V17.334H17.3334C16.7587 17.334 16.2076 17.1057 15.8013 16.6994C15.395 16.2931 15.1667 15.742 15.1667 15.1673C15.1667 14.5927 15.395 14.0416 15.8013 13.6353C16.2076 13.2289 16.7587 13.0007 17.3334 13.0007H21.6667Z" stroke="white" stroke-width="1.8" stroke-linecap="round" stroke-linejoin="round"/>
</svg>
