<svg width="16" height="17" viewBox="0 0 16 17" fill="none" xmlns="http://www.w3.org/2000/svg">
<path d="M8 16.9091C3.58698 16.9091 0 13.3221 0 8.90906C0 4.49603 3.58698 0.909058 8 0.909058C12.413 0.909058 16 4.49603 16 8.90906C16 13.3221 12.413 16.9091 8 16.9091ZM8 2.02534C4.20465 2.02534 1.11628 5.11371 1.11628 8.90906C1.11628 12.7044 4.20465 15.7928 8 15.7928C11.7953 15.7928 14.8837 12.7044 14.8837 8.90906C14.8837 5.11371 11.7953 2.02534 8 2.02534Z" fill="#E6E8EC"/>
<path d="M5.76744 16.1649H5.02326C4.71814 16.1649 4.46512 15.9118 4.46512 15.6067C4.46512 15.3016 4.70326 15.056 5.00837 15.0486C3.84 11.0389 3.84 6.77917 5.00837 2.76952C4.86263 2.76659 4.7239 2.70638 4.62223 2.60192C4.52055 2.49746 4.46411 2.35715 4.46512 2.21138C4.46512 1.90627 4.71814 1.65324 5.02326 1.65324H5.76744C5.94605 1.65324 6.11721 1.74255 6.2214 1.88394C6.32558 2.03278 6.35535 2.21883 6.29581 2.38999C4.89674 6.62598 4.89674 11.1996 6.29581 15.4356C6.35535 15.6067 6.32558 15.7928 6.2214 15.9416C6.11721 16.0756 5.94605 16.1649 5.76744 16.1649Z" fill="#E6E8EC"/>
<path d="M10.2326 16.1649C10.1437 16.1656 10.0559 16.145 9.97668 16.1048C9.89743 16.0645 9.82903 16.0058 9.77723 15.9336C9.72543 15.8614 9.69175 15.7777 9.67904 15.6898C9.66633 15.6018 9.67495 15.5121 9.70419 15.4281C11.1033 11.1921 11.1033 6.61854 9.70419 2.38255C9.68073 2.31316 9.67117 2.23983 9.67606 2.16675C9.68094 2.09367 9.70017 2.02227 9.73265 1.95662C9.76513 1.89097 9.81022 1.83236 9.86535 1.78414C9.92048 1.73592 9.98457 1.69902 10.054 1.67557C10.1233 1.65211 10.1967 1.64256 10.2697 1.64744C10.3428 1.65232 10.4142 1.67155 10.4799 1.70403C10.5455 1.73651 10.6041 1.7816 10.6524 1.83673C10.7006 1.89186 10.7375 1.95595 10.7609 2.02534C12.2418 6.48738 12.2418 11.3084 10.7609 15.7705C10.6865 16.016 10.4633 16.1649 10.2326 16.1649Z" fill="#E6E8EC"/>
<path d="M8 12.7788C5.92372 12.7788 3.85488 12.4886 1.86047 11.9007C1.85302 12.1984 1.60744 12.4439 1.30233 12.4439C0.997209 12.4439 0.744186 12.1909 0.744186 11.8858V11.1416C0.744186 10.963 0.833488 10.7918 0.974884 10.6877C1.12372 10.5835 1.30977 10.5537 1.48093 10.6132C5.71693 12.0123 10.2905 12.0123 14.5265 10.6132C14.6107 10.5844 14.7005 10.5761 14.7886 10.5891C14.8766 10.602 14.9602 10.6358 15.0326 10.6877C15.1814 10.7918 15.2633 10.963 15.2633 11.1416V11.8858C15.2633 12.1909 15.0102 12.4439 14.7051 12.4439C14.4 12.4439 14.1544 12.2058 14.147 11.9007C12.1451 12.4886 10.0763 12.7788 8 12.7788Z" fill="#E6E8EC"/>
<path d="M14.6977 7.23464C14.6381 7.23464 14.5786 7.2272 14.5191 7.20487C10.2831 5.8058 5.70948 5.8058 1.47349 7.20487C1.17581 7.30162 0.863256 7.14534 0.766512 6.8551C0.677209 6.55743 0.833488 6.24487 1.12372 6.14813C5.58575 4.66717 10.4068 4.66717 14.8688 6.14813C15.1591 6.24487 15.3228 6.56487 15.2186 6.8551C15.1837 6.96568 15.1142 7.06218 15.0205 7.13047C14.9268 7.19876 14.8136 7.23526 14.6977 7.23464Z" fill="#E6E8EC"/>
</svg>
